<svg width="25" height="24" viewBox="0 0 25 24" fill="none" xmlns="http://www.w3.org/2000/svg">
<rect width="25" height="24" fill="white"/>
<rect width="1920" height="1909" transform="translate(-75 -494)" fill="white"/>
<rect x="-19" y="-63.5" width="102" height="107" rx="4.5" stroke="#9747FF" stroke-dasharray="10 5"/>
<mask id="mask0_45_2487" style="mask-type:alpha" maskUnits="userSpaceOnUse" x="0" y="0" width="25" height="24">
<rect x="0.5" width="24" height="24" fill="#D9D9D9"/>
</mask>
<g mask="url(#mask0_45_2487)">
<path d="M5.5 19H6.9L15.525 10.375L14.125 8.975L5.5 17.6V19ZM19.8 8.925L15.55 4.725L16.95 3.325C17.3333 2.94167 17.8042 2.75 18.3625 2.75C18.9208 2.75 19.3917 2.94167 19.775 3.325L21.175 4.725C21.5583 5.10833 21.7583 5.57083 21.775 6.1125C21.7917 6.65417 21.6083 7.11667 21.225 7.5L19.8 8.925ZM18.35 10.4L7.75 21H3.5V16.75L14.1 6.15L18.35 10.4Z" fill="#29ABE2"/>
</g>
</svg>
